<svg width="19" height="22" viewBox="0 0 19 22" fill="none" xmlns="http://www.w3.org/2000/svg">
<path d="M11.3932 2.42984C11.4113 2.24908 11.3914 2.06652 11.3346 1.89394C11.2779 1.72136 11.1856 1.56259 11.0637 1.42787C10.9419 1.29315 10.7931 1.18547 10.6271 1.11177C10.461 1.03808 10.2814 1 10.0997 1C9.91801 1 9.73836 1.03808 9.57231 1.11177C9.40626 1.18547 9.25751 1.29315 9.13563 1.42787C9.01376 1.56259 8.92147 1.72136 8.86473 1.89394C8.80798 2.06652 8.78804 2.24908 8.80618 2.42984C7.337 2.72859 6.01619 3.52587 5.06739 4.68671C4.11859 5.84754 3.60009 7.30059 3.59968 8.79984C3.59968 9.94591 3.1809 14.2775 2.00721 16.6147C1.7852 17.0568 2.15637 17.8998 2.65107 17.8998H17.5483C18.043 17.8998 18.4142 17.0568 18.1922 16.6147C17.0185 14.2775 16.5997 9.94591 16.5997 8.79984C16.5993 7.30059 16.0808 5.84754 15.132 4.68671C14.1832 3.52587 12.8624 2.72859 11.3932 2.42984Z" fill="#B8BFC4"/>
<path d="M12.9746 19.8284C12.3182 20.5786 11.4279 21 10.4997 21C9.57143 21 8.68119 20.5786 8.02481 19.8284C7.36843 19.0783 6.99968 18.0609 6.99968 17H13.9997C13.9997 18.0609 13.6309 19.0783 12.9746 19.8284Z" fill="#B8BFC4"/>

</svg>
