<svg width="24" height="24" viewBox="0 0 24 24" fill="none" xmlns="http://www.w3.org/2000/svg">
<path d="M12 14.9999C12.7956 14.9999 13.5587 14.6838 14.1213 14.1212C14.6839 13.5586 15 12.7955 15 11.9999C15 11.2042 14.6839 10.4412 14.1213 9.87857C13.5587 9.31596 12.7956 8.99989 12 8.99989C11.2043 8.99989 10.4413 9.31596 9.87865 9.87857C9.31604 10.4412 8.99997 11.2042 8.99997 11.9999C8.99997 12.7955 9.31604 13.5586 9.87865 14.1212C10.4413 14.6838 11.2043 14.9999 12 14.9999Z" stroke="#102938" stroke-width="1.5" stroke-linecap="round" stroke-linejoin="round"/>
<path d="M19.622 10.395L18.525 7.745L20 6L18 4L16.265 5.483L13.558 4.37L12.935 2H10.981L10.349 4.401L7.704 5.516L6 4L4 6L5.453 7.789L4.373 10.446L2 11V13L4.401 13.655L5.516 16.3L4 18L6 20L7.791 18.54L10.397 19.612L11 22H13L13.604 19.613L16.255 18.515C16.697 18.831 18 20 18 20L20 18L18.516 16.25L19.614 13.598L22 12.978V11L19.622 10.395Z" stroke="#102938" stroke-width="1.5" stroke-linecap="round" stroke-linejoin="round"/>
</svg>
