<svg width="18" height="18" viewBox="0 0 18 18" fill="none" xmlns="http://www.w3.org/2000/svg">
<path d="M8.4375 14.25C8.4375 14.1008 8.49676 13.9577 8.60225 13.8523C8.70774 13.7468 8.85082 13.6875 9 13.6875H13.5C13.5497 13.6875 13.5974 13.6677 13.6326 13.6326C13.6677 13.5974 13.6875 13.5497 13.6875 13.5V4.5C13.6875 4.45027 13.6677 4.40258 13.6326 4.36742C13.5974 4.33225 13.5497 4.3125 13.5 4.3125H9C8.85082 4.3125 8.70774 4.25324 8.60225 4.14775C8.49676 4.04226 8.4375 3.89918 8.4375 3.75C8.4375 3.60082 8.49676 3.45774 8.60225 3.35225C8.70774 3.24676 8.85082 3.1875 9 3.1875H13.5C14.2245 3.1875 14.8125 3.7755 14.8125 4.5V13.5C14.8125 13.8481 14.6742 14.1819 14.4281 14.4281C14.1819 14.6742 13.8481 14.8125 13.5 14.8125H9C8.85082 14.8125 8.70774 14.7532 8.60225 14.6477C8.49676 14.5423 8.4375 14.3992 8.4375 14.25Z" fill="#102938"/>
<path d="M11.7089 9.83626C11.7089 10.0352 11.6299 10.2259 11.4893 10.3666C11.3486 10.5072 11.1579 10.5863 10.9589 10.5863H7.31694C7.29969 10.8533 7.27794 11.1188 7.25244 11.3858L7.22994 11.6145C7.22157 11.7007 7.19251 11.7836 7.14525 11.8562C7.098 11.9288 7.03392 11.9889 6.95847 12.0315C6.88303 12.074 6.79843 12.0977 6.71186 12.1006C6.62529 12.1035 6.5393 12.0855 6.46119 12.048C5.09018 11.3909 3.84903 10.4918 2.79744 9.39376L2.77494 9.37051C2.67841 9.26983 2.62451 9.13574 2.62451 8.99626C2.62451 8.85678 2.67841 8.72269 2.77494 8.62201L2.79744 8.59876C3.84902 7.50075 5.09017 6.60158 6.46119 5.94451C6.5393 5.90707 6.62529 5.88902 6.71186 5.8919C6.79843 5.89478 6.88303 5.91849 6.95847 5.96104C7.03392 6.00359 7.098 6.0637 7.14525 6.13629C7.19251 6.20888 7.22157 6.2918 7.22994 6.37801L7.25244 6.60676C7.27794 6.87301 7.29969 7.13926 7.31694 7.40626H10.9589C11.1579 7.40626 11.3486 7.48528 11.4893 7.62593C11.6299 7.76658 11.7089 7.95735 11.7089 8.15626V9.83626Z" fill="#102938"/>
</svg>
