<svg width="16" height="16" viewBox="0 0 16 16" fill="none" xmlns="http://www.w3.org/2000/svg">
<g clip-path="url(#clip0_1431_4396)">
<path d="M3.33313 10.0955C2.09913 10.5802 1.33313 11.2542 1.33313 12.0002C1.33313 13.4735 4.3178 14.6668 7.9998 14.6668C11.6818 14.6668 14.6665 13.4735 14.6665 12.0002C14.6665 11.2542 13.9005 10.5802 12.6665 10.0955M7.9998 1.3335C6.93893 1.3335 5.92152 1.75492 5.17137 2.50507C4.42122 3.25521 3.9998 4.27263 3.9998 5.3335C3.9998 6.2795 4.20113 6.89883 4.7498 7.5835L7.9998 11.3335L11.2498 7.5835C11.7985 6.89883 11.9998 6.2795 11.9998 5.3335C11.9998 4.27263 11.5784 3.25521 10.8282 2.50507C10.0781 1.75492 9.06066 1.3335 7.9998 1.3335ZM7.9998 4.66683C7.82299 4.66683 7.65342 4.73707 7.52839 4.86209C7.40337 4.98712 7.33313 5.15669 7.33313 5.3335C7.33313 5.51031 7.40337 5.67988 7.52839 5.8049C7.65342 5.92992 7.82299 6.00016 7.9998 6.00016C8.17661 6.00016 8.34618 5.92992 8.4712 5.8049C8.59623 5.67988 8.66646 5.51031 8.66646 5.3335C8.66646 5.15669 8.59623 4.98712 8.4712 4.86209C8.34618 4.73707 8.17661 4.66683 7.9998 4.66683Z" stroke="#586A74" stroke-width="1.33333" stroke-linecap="round" stroke-linejoin="round"/>
</g>
<defs>
<clipPath id="clip0_1431_4396">
<rect width="16" height="16" fill="white"/>
</clipPath>
</defs>
</svg>
