<svg width="10" height="13" viewBox="0 0 10 13" fill="none" xmlns="http://www.w3.org/2000/svg">
<path d="M3.888 8.71545H6.064L5.856 10.1395H3.696L3.424 12.0595H0.656L0.928 10.1395H0L0.192 8.71545H1.12L1.248 7.83545H0.32L0.56 6.20345H1.472L2.208 0.939453H5.2C6.384 0.939453 7.312 1.19545 7.984 1.70745C8.66667 2.21945 9.008 2.97679 9.008 3.97945C9.008 5.21679 8.58133 6.17145 7.728 6.84345C6.88533 7.50479 5.74933 7.83545 4.32 7.83545H4.016L3.888 8.71545ZM4.704 2.89145L4.24 6.20345H4.496C4.98667 6.20345 5.38667 6.01145 5.696 5.62745C6.00533 5.23279 6.16 4.69412 6.16 4.01145C6.16 3.61679 6.05867 3.33412 5.856 3.16345C5.664 2.98212 5.36533 2.89145 4.96 2.89145H4.704Z" fill="white"/>
</svg>
