<svg width="32" height="32" viewBox="0 0 32 32" fill="none" xmlns="http://www.w3.org/2000/svg">
<path d="M6.66657 13.147C9.22638 18.7214 13.7748 23.1396 19.4212 25.5363L20.3279 25.9403C21.3319 26.3874 22.4616 26.4658 23.5177 26.1616C24.5739 25.8575 25.4888 25.1903 26.1012 24.2777L27.2866 22.5123C27.4721 22.2355 27.5471 21.8992 27.4971 21.5698C27.447 21.2403 27.2753 20.9415 27.0159 20.7323L22.9999 17.4923C22.8601 17.3798 22.699 17.2966 22.5262 17.2479C22.3535 17.1991 22.1727 17.1857 21.9946 17.2085C21.8166 17.2312 21.645 17.2897 21.4901 17.3805C21.3352 17.4712 21.2002 17.5922 21.0932 17.7363L19.8492 19.4123C16.6594 17.8369 14.0774 15.2545 12.5026 12.0643L14.1772 10.8217C14.3216 10.7147 14.4428 10.5796 14.5336 10.4246C14.6244 10.2696 14.683 10.0979 14.7058 9.91966C14.7286 9.74146 14.7151 9.56048 14.6662 9.38761C14.6173 9.21474 14.534 9.05353 14.4212 8.91367L11.1812 4.89767C10.972 4.63827 10.6733 4.46662 10.3438 4.41652C10.0144 4.36643 9.67809 4.44152 9.40124 4.627L7.62391 5.819C6.70577 6.43471 6.03603 7.35635 5.73398 8.41976C5.43193 9.48316 5.51719 10.6193 5.97457 11.6257L6.66657 13.147Z" fill="#405460"/>
</svg>
