<svg width="20" height="20" viewBox="0 0 20 20" fill="none" xmlns="http://www.w3.org/2000/svg">
<path fill-rule="evenodd" clip-rule="evenodd" d="M1.37478 9.32049C6.74515 6.67485 10.3254 4.92915 12.1155 4.08754C17.2318 1.68355 18.2926 1.26275 18.985 1.25025C19.1361 1.24609 19.4786 1.29192 19.6996 1.4919C19.8875 1.66272 19.939 1.89187 19.9611 2.05436C19.9832 2.21685 20.0164 2.58765 19.9906 2.87513C19.7144 6.17072 18.5136 14.1618 17.9058 17.8532C17.648 19.4156 17.1397 19.9364 16.6461 19.9905C15.5779 20.103 14.7639 19.1906 13.7289 18.424C12.1082 17.2241 11.191 16.4741 9.61819 15.2992C7.7986 13.9451 8.97729 13.1994 10.016 11.9828C10.2886 11.6662 14.9996 6.81651 15.0917 6.37488C15.1028 6.32071 15.1138 6.11656 15.007 6.00824C14.9002 5.89991 14.7418 5.93741 14.6239 5.96657C14.4618 6.00824 11.8724 7.94559 6.85566 11.7745C6.11898 12.3453 5.45597 12.6244 4.85926 12.6077C4.19993 12.5911 2.93653 12.1869 1.99727 11.8411C0.84437 11.4162 -0.0727933 11.1912 0.0045578 10.4704C0.0487584 10.0954 0.505498 9.71213 1.37478 9.32049Z" fill="#2CA5E0"/>
</svg>
