<svg width="20" height="20" viewBox="0 0 20 20" fill="none" xmlns="http://www.w3.org/2000/svg">
<g clip-path="url(#clip0_530_1589)">
<path fill-rule="evenodd" clip-rule="evenodd" d="M0.00266246 10.0021C0.00149127 4.48251 4.47506 0.00703536 9.99464 0.00586418C11.8658 0.00402933 13.6998 0.52747 15.288 1.51665C19.9732 4.43461 21.4058 10.5982 18.4879 15.2834C15.5699 19.9687 9.40628 21.4013 4.72108 18.4833L0.556866 19.9699C0.51201 19.9862 0.464655 19.9943 0.416949 19.9941C0.365534 19.9942 0.314587 19.9847 0.266608 19.9662C0.0520473 19.8834 -0.0547645 19.6423 0.0280381 19.4277L1.58294 15.3934C0.551517 13.7844 0.00305285 11.9133 0.00266246 10.0021ZM13.1004 10.8752C13.7392 11.2083 14.7594 11.708 14.7594 11.708C14.9018 11.7781 14.9919 11.9232 14.9918 12.082V12.9148C14.7823 14.1276 13.724 15.0095 12.4933 14.9969C11.1849 14.9969 8.67306 13.4328 7.61782 12.3768C6.56259 11.3207 4.99769 8.80888 4.99769 7.50133C4.98504 6.27057 5.86691 5.21229 7.07978 5.00281H7.91261C8.06974 5.00296 8.21337 5.09154 8.28407 5.23185C8.28407 5.23267 8.78791 6.25207 9.1169 6.89169C9.4875 7.61458 8.79209 8.46326 8.39564 8.86384C8.63456 9.48609 8.99529 10.0543 9.4567 10.5354C9.93778 10.9967 10.506 11.3574 11.1282 11.5964C11.528 11.2 12.3775 10.5029 13.1004 10.8752Z" fill="#25D366"/>
</g>
<defs>
<clipPath id="clip0_530_1589">
<rect width="20" height="20" fill="white"/>
</clipPath>
</defs>
</svg>
